<!-- icon666.com - MILLIONS vector ICONS FREE --><svg id="Layer_1" viewBox="0 0 512 512" fill="rgba(255, 172, 48, 1)" xmlns="http://www.w3.org/2000/svg" data-name="Layer 1"><path d="m491.19 363.245-90.39-45.545a37.9 37.9 0 0 0 -46.814 10.492l-29.5 37.777a6.069 6.069 0 0 1 -7.106 2.057c-73.942-26.536-146.87-99.464-173.407-173.406a6.074 6.074 0 0 1 2.057-7.106l37.777-29.5a37.905 37.905 0 0 0 10.493-46.814l-45.544-90.39a37.294 37.294 0 0 0 -39.194-20.41l-41 5.947a37.027 37.027 0 0 0 -15.476 5.913 116.457 116.457 0 0 0 -51.692 90.44c-.008.116-.023.231-.036.34a253.946 253.946 0 0 0 3.556 75.457 336.679 336.679 0 0 0 24.147 74.692c21.544 47.683 54.36 94.314 94.9 134.853s87.17 73.353 134.854 94.9a336.651 336.651 0 0 0 74.685 24.143 265.607 265.607 0 0 0 50.132 4.915 233.576 233.576 0 0 0 25.335-1.359c.114-.013.228-.028.343-.035a116.452 116.452 0 0 0 90.433-51.692 37.026 37.026 0 0 0 5.909-15.473l5.948-41a37.3 37.3 0 0 0 -20.41-39.196zm4.573 36.9-5.948 41a21.068 21.068 0 0 1 -3.409 8.927 100.385 100.385 0 0 1 -77.955 44.56c-.411.022-.822.061-1.224.106a238.017 238.017 0 0 1 -70.7-3.363 320.659 320.659 0 0 1 -71.127-23.017c-45.943-20.76-90.94-52.446-130.127-91.632s-70.873-84.186-91.632-130.126a320.569 320.569 0 0 1 -23.014-71.125 237.937 237.937 0 0 1 -3.362-70.7c.045-.409.085-.823.105-1.222a100.389 100.389 0 0 1 44.56-77.959 21.079 21.079 0 0 1 8.926-3.409l41-5.947a22.792 22.792 0 0 1 3.278-.238 21.465 21.465 0 0 1 19.333 12.009l45.544 90.391a21.6 21.6 0 0 1 -6.052 27.005l-37.777 29.5a21.994 21.994 0 0 0 -7.268 25.119c28.014 78.059 105 155.047 183.061 183.062a22 22 0 0 0 25.12-7.267l29.5-37.777a21.6 21.6 0 0 1 27-6.053l90.387 45.544a21.517 21.517 0 0 1 11.781 22.609z"></path></svg>